<svg xmlns="http://www.w3.org/2000/svg" viewBox="0 0 100 100">
  <defs>
    <linearGradient id="dnaGradient" x1="0%" y1="0%" x2="100%" y2="100%">
      <stop offset="0%" style="stop-color:#3b82f6;stop-opacity:1" />
      <stop offset="100%" style="stop-color:#1d4ed8;stop-opacity:1" />
    </linearGradient>
  </defs>

  <!-- DNA double helix -->
  <g fill="none" stroke="url(#dnaGradient)" stroke-width="4" stroke-linecap="round">
    <!-- Left strand -->
    <path d="M 20 10 Q 35 30, 20 50 Q 5 70, 20 90" />
    <!-- Right strand -->
    <path d="M 80 10 Q 65 30, 80 50 Q 95 70, 80 90" />

    <!-- Connecting base pairs -->
    <line x1="20" y1="15" x2="80" y2="15" stroke-width="3" />
    <line x1="27" y1="25" x2="73" y2="25" stroke-width="3" />
    <line x1="23" y1="35" x2="77" y2="35" stroke-width="3" />
    <line x1="20" y1="50" x2="80" y2="50" stroke-width="3" />
    <line x1="23" y1="65" x2="77" y2="65" stroke-width="3" />
    <line x1="27" y1="75" x2="73" y2="75" stroke-width="3" />
    <line x1="20" y1="85" x2="80" y2="85" stroke-width="3" />
  </g>

  <!-- Base pair dots -->
  <circle cx="20" cy="15" r="3" fill="#3b82f6" />
  <circle cx="80" cy="15" r="3" fill="#3b82f6" />
  <circle cx="27" cy="25" r="3" fill="#1d4ed8" />
  <circle cx="73" cy="25" r="3" fill="#1d4ed8" />
  <circle cx="20" cy="50" r="3" fill="#3b82f6" />
  <circle cx="80" cy="50" r="3" fill="#3b82f6" />
  <circle cx="27" cy="75" r="3" fill="#1d4ed8" />
  <circle cx="73" cy="75" r="3" fill="#1d4ed8" />
</svg>
